<svg width="30" height="30" viewBox="0 0 30 30" fill="none" xmlns="http://www.w3.org/2000/svg">
<g clip-path="url(#clip0_7_281)">
<path d="M2.38389 3.34957C4.18688 3.23621 6.21597 3.71931 7.90369 4.75741C9.5914 5.79551 10.9377 7.3886 11.6497 9.04894C12.3975 10.6935 12.6683 12.7616 12.2989 14.7083C11.9296 16.655 10.9201 18.4802 9.62192 19.7366C9.07756 20.3024 8.15106 20.5851 7.38355 20.4197C6.60878 20.2925 5.85022 19.6901 5.55092 18.9642L0.212969 6.87898C-0.121986 6.16888 -0.0564 5.20242 0.371422 4.54408C0.766045 3.86532 1.59904 3.37089 2.38389 3.34957Z" fill="white"/>
<path d="M29.9516 4.6606C30.015 4.52271 30.0162 4.34556 29.9547 4.20682C29.8974 4.0663 29.769 3.94428 29.6257 3.8943C27.6589 3.1231 25.0018 3.11501 22.7546 4.07071C20.5073 5.02642 18.67 6.94594 17.8611 8.89754L10.2155 26.2125C10.1521 26.3504 10.1509 26.5275 10.2124 26.6663C10.2697 26.8068 10.3981 26.9288 10.5414 26.9788C12.5082 27.75 15.1653 27.7581 17.4126 26.8024C19.6598 25.8467 21.4972 23.9272 22.306 21.9756L29.9516 4.6606Z" fill="white"/>
</g>
<defs>
<clipPath id="clip0_7_281">
<rect width="30" height="30" fill="white"/>
</clipPath>
</defs>
</svg>
