<svg width="132" height="30" viewBox="0 0 132 30" fill="none" xmlns="http://www.w3.org/2000/svg">
<g clip-path="url(#clip0_2460_57607)">
<path d="M123.543 22.6668H125.284V17.6215C125.284 17.4396 125.304 17.2821 125.345 17.1316C125.386 16.9818 125.449 16.8378 125.542 16.6855L127.278 13.8375C128.102 12.483 128.927 11.1291 129.752 9.77515L130.021 9.3335H127.804L127.711 9.48907C126.611 11.2924 125.513 13.0969 124.413 14.9021C123.313 13.0969 122.215 11.2924 121.115 9.48779L121.021 9.3335H118.806L119.075 9.77515C119.602 10.6385 120.127 11.5026 120.654 12.366L122.231 14.9574L122.774 15.8497C122.955 16.1467 123.138 16.4438 123.315 16.7433C123.331 16.7697 123.347 16.7967 123.361 16.8243C123.376 16.852 123.388 16.8809 123.401 16.9098C123.476 17.075 123.522 17.2519 123.535 17.4325C123.541 17.4949 123.543 17.5579 123.543 17.6215V22.6668V22.6668Z" fill="#252525"/>
<path d="M116.826 22.6662H114.836L114.766 22.4926C114.328 21.3894 113.894 20.2848 113.458 19.1803L112.982 17.9717C112.728 17.33 112.15 16.9192 111.5 16.9192H107.325V22.6668H105.611V9.3335H112.284C112.592 9.3335 112.897 9.33993 113.201 9.37657C113.36 9.39586 113.517 9.42286 113.671 9.46015C114.122 9.56645 114.547 9.76517 114.918 10.0439C115.051 10.1436 115.176 10.2535 115.293 10.3731C115.528 10.6135 115.729 10.8919 115.892 11.1941C116.059 11.5085 116.185 11.8486 116.271 12.1996C116.437 12.8846 116.454 13.5972 116.324 14.2897C116.292 14.4594 116.249 14.6272 116.199 14.7918C116.163 14.9056 116.123 15.0182 116.08 15.1293C116.014 15.2942 115.936 15.4541 115.847 15.6077C115.721 15.8261 115.568 16.0286 115.393 16.2107C115.237 16.3712 115.061 16.5114 114.87 16.628C114.756 16.698 114.639 16.7621 114.519 16.8202L116.826 22.6662V22.6662ZM107.326 14.9513H112.307C112.568 14.9513 112.828 14.9513 113.089 14.9281C114.084 14.9281 114.484 14.2531 114.553 13.371C114.636 12.3359 114.311 11.4236 113.19 11.3329C112.948 11.3091 112.704 11.2984 112.461 11.3008L107.326 11.3021V14.9506V14.9513Z" fill="#252525"/>
<path d="M101.823 22.6668H103.632L98.4096 9.3335H97.3241C97.1343 9.3335 96.9444 9.33542 96.7546 9.34828C96.5733 9.35865 96.3931 9.38358 96.2157 9.42286C96.036 9.46465 95.8602 9.52573 95.6933 9.60866C95.5131 9.69892 95.3447 9.81144 95.192 9.94362C95.0358 10.0789 94.8944 10.2306 94.7702 10.3962C94.6506 10.5564 94.5433 10.7255 94.4492 10.9022C94.3584 11.0723 94.2753 11.2465 94.2001 11.4242C94.1281 11.5914 94.0619 11.7598 93.995 11.9296L89.7778 22.6662H91.7641L91.8329 22.492C92.4718 20.8654 93.1101 19.2388 93.7504 17.6116C94.3919 15.9716 95.0346 14.3321 95.6793 12.6953L95.7207 12.5911C95.7596 12.4934 95.7984 12.3957 95.8392 12.2992C95.8774 12.2094 95.9171 12.1203 95.9583 12.0318C95.9998 11.9453 96.0448 11.8605 96.0934 11.7778C96.1277 11.7197 96.1661 11.6641 96.208 11.6113L96.2106 11.6094L96.2119 11.6068C96.2489 11.5591 96.2912 11.5157 96.338 11.4776L96.3475 11.4692L96.3571 11.4609C96.3571 11.4609 96.3724 11.4487 96.3928 11.4352C96.4183 11.4197 96.438 11.4095 96.438 11.4095L96.4469 11.4056C96.4728 11.3933 96.4992 11.3819 96.5259 11.3715C96.5505 11.3623 96.5759 11.3554 96.6017 11.351L96.6176 11.3484L96.6336 11.3432C96.6495 11.3387 96.6807 11.3323 96.7285 11.3265L96.7342 11.3259L96.7393 11.3246C96.7782 11.3182 96.8291 11.313 96.8782 11.3098C96.9438 11.3072 97.012 11.304 97.0757 11.3034H97.1942C97.9796 13.306 98.7638 15.31 99.5486 17.3133C100.225 19.0402 100.9 20.7657 101.578 22.4913L101.646 22.6668H101.823V22.6668Z" fill="#252525"/>
<path d="M83.6249 22.6662H85.375V11.3026H89.7777V9.3335H79.2222V11.3026H83.6249V22.6668V22.6662Z" fill="#252525"/>
<path d="M73.1375 9.3335C72.6928 9.3335 72.2481 9.36371 71.8092 9.43636C71.41 9.50076 71.0187 9.60569 70.6414 9.74945C70.287 9.88522 69.9503 10.0622 69.6385 10.2766C69.3323 10.4889 69.0541 10.7379 68.8104 11.0179C68.5598 11.308 68.344 11.6258 68.1675 11.9649C67.9779 12.3301 67.825 12.7127 67.711 13.1073C67.5839 13.5413 67.4965 13.9881 67.4391 14.4381C67.3752 14.9402 67.3478 15.4475 67.3478 15.9547L67.3472 16.0274C67.3472 16.5082 67.3726 17.029 67.4352 17.5395C67.4906 17.9966 67.5767 18.4453 67.7025 18.8831C67.8148 19.2808 67.9659 19.6669 68.1538 20.0358C68.3298 20.3766 68.5417 20.6987 68.7902 20.986C69.0334 21.2676 69.3118 21.5158 69.6131 21.7254C69.9261 21.9414 70.2651 22.1156 70.6173 22.2506C70.9951 22.3939 71.3869 22.4986 71.7864 22.5631C72.1161 22.618 72.4492 22.6506 72.7834 22.6608C72.8851 22.664 72.9738 22.6646 73.0586 22.6646C73.5607 22.6679 73.9245 22.6666 74.3092 22.6666H77.8851V22.3342C77.8851 21.9986 77.8858 21.366 77.8877 21.031L77.8897 20.6967H75.5031C74.7187 20.6967 73.961 20.698 73.0449 20.6954C72.9836 20.6954 72.921 20.6954 72.8408 20.6929C72.7494 20.6898 72.6581 20.6849 72.5669 20.6781C72.4009 20.6661 72.2355 20.6463 72.0713 20.6189C71.7926 20.5741 71.5193 20.5013 71.2556 20.4016C71.1437 20.3586 71.0342 20.3096 70.9276 20.2551C70.8302 20.2026 70.7359 20.1447 70.6453 20.0815L70.6433 20.0808L70.642 20.0796C70.5561 20.0215 70.4748 19.957 70.3988 19.8867C70.2382 19.7445 70.0974 19.5819 69.9802 19.4032L69.9789 19.4013L69.9776 19.3987C69.9126 19.3016 69.8526 19.2014 69.7976 19.0985C69.6723 18.8482 69.571 18.5869 69.4951 18.318C69.4504 18.1594 69.4116 17.9992 69.379 17.8378C69.3425 17.6578 69.3125 17.4765 69.2897 17.2939C69.2655 17.0965 69.2518 16.8888 69.2375 16.6838C69.2251 16.4347 69.2192 16.1854 69.2199 15.9361C69.2198 15.518 69.2442 15.1003 69.2929 14.685C69.3399 14.341 69.4038 13.9997 69.5003 13.6673C69.5785 13.3998 69.6776 13.1388 69.8054 12.8939C69.9083 12.6927 70.036 12.5048 70.1856 12.3345L70.1875 12.3326L70.1888 12.3313C70.256 12.2523 70.3251 12.1809 70.4027 12.1153L70.406 12.1127L70.4099 12.1095C70.4975 12.0296 70.5912 11.9566 70.6903 11.8909C70.8701 11.7701 71.0643 11.6716 71.2687 11.5978L71.2719 11.5965L71.2758 11.5952C71.3984 11.5451 71.5249 11.5065 71.6527 11.4731C71.7959 11.4358 71.9409 11.4051 72.087 11.3811C72.25 11.3541 72.413 11.3355 72.5845 11.3226C72.7457 11.3109 72.9073 11.3047 73.069 11.304C73.9773 11.3014 74.7357 11.3021 75.5201 11.3027H77.9027V9.3335H73.1375Z" fill="#252525"/>
<path d="M54.8125 22.6668H65.3681V20.6976H56.7456V16.9198H63.8468V15.0792H56.7456V11.3027H65.3681V9.3335H54.8125V22.6668Z" fill="#252525"/>
<path d="M44.3807 22.6668H45.2895C45.5239 22.6668 45.7583 22.6636 45.992 22.6411C46.1047 22.6302 46.2168 22.6148 46.3283 22.5923C46.6773 22.5232 47.0066 22.376 47.2919 22.1615C47.4988 22.0052 47.6826 21.8199 47.8377 21.6112C47.9127 21.5128 47.9824 21.4104 48.0466 21.3045C48.1111 21.1978 48.1714 21.0887 48.2275 20.9773C48.281 20.8725 48.3313 20.7664 48.3784 20.6584C48.4255 20.5504 48.4701 20.4411 48.5147 20.3318C48.6535 19.9865 48.7873 19.6394 48.9223 19.2922L49.3299 18.2526C49.6025 17.5602 49.8738 16.8671 50.1458 16.1741L50.7782 14.5636L51.4106 12.9524L52.0437 11.342L52.6767 9.73146L52.8334 9.3335H50.8451L50.7763 9.50837C50.1388 11.1317 49.5012 12.7551 48.865 14.3791L46.8811 19.4304C46.841 19.5326 46.8008 19.6342 46.7582 19.7352C46.6923 19.8903 46.6183 20.0418 46.5365 20.1891C46.5068 20.2403 46.4747 20.2901 46.4404 20.3382C46.3933 20.4053 46.3388 20.4668 46.278 20.5214C46.2467 20.5439 46.2289 20.5581 46.2289 20.5581L46.2245 20.5607L46.2206 20.5632L46.1824 20.5857L46.1289 20.6114L46.0971 20.6243L46.0894 20.6269C46.0218 20.6508 45.9517 20.6672 45.8805 20.6757C45.831 20.6814 45.7813 20.6857 45.7315 20.6886H45.7239C45.6221 20.6957 45.5201 20.6987 45.4182 20.6976L40.9657 9.3335H38.9792L39.1353 9.73146C40.8014 13.9843 42.4662 18.2372 44.1355 22.4913L44.2043 22.6668H44.3807Z" fill="#252525"/>
</g>
<g clip-path="url(#clip1_2460_57607)">
<g clip-path="url(#clip2_2460_57607)">
<path d="M2.38389 3.34969C4.18688 3.23633 6.21597 3.71943 7.90369 4.75753C9.5914 5.79563 10.9377 7.38872 11.6497 9.04906C12.3975 10.6936 12.6683 12.7618 12.2989 14.7084C11.9296 16.6551 10.9201 18.4804 9.62192 19.7368C9.07756 20.3025 8.15106 20.5853 7.38355 20.4198C6.60878 20.2926 5.85022 19.6902 5.55092 18.9644L0.212969 6.8791C-0.121986 6.169 -0.0564 5.20255 0.371422 4.5442C0.766045 3.86544 1.59904 3.37101 2.38389 3.34969Z" fill="#252525"/>
<path d="M29.9516 4.66072C30.015 4.52283 30.0162 4.34568 29.9547 4.20694C29.8974 4.06642 29.769 3.94441 29.6257 3.89442C27.6589 3.12322 25.0018 3.11513 22.7546 4.07083C20.5073 5.02654 18.67 6.94606 17.8611 8.89766L10.2155 26.2126C10.1521 26.3505 10.1509 26.5277 10.2124 26.6664C10.2697 26.8069 10.3981 26.9289 10.5414 26.9789C12.5082 27.7501 15.1653 27.7582 17.4126 26.8025C19.6598 25.8468 21.4972 23.9273 22.306 21.9757L29.9516 4.66072Z" fill="#252525"/>
</g>
</g>
<defs>
<clipPath id="clip0_2460_57607">
<rect width="95" height="16" fill="white" transform="translate(37 8)"/>
</clipPath>
<clipPath id="clip1_2460_57607">
<rect width="30" height="30" fill="white"/>
</clipPath>
<clipPath id="clip2_2460_57607">
<rect width="30" height="30" fill="white"/>
</clipPath>
</defs>
</svg>
